<?xml version="1.0" encoding="UTF-8"?>
<svg width="50px" height="50px" viewBox="0 0 50 50" version="1.1" xmlns="http://www.w3.org/2000/svg" xmlns:xlink="http://www.w3.org/1999/xlink">
    <!-- Generator: Sketch 47.1 (45422) - http://www.bohemiancoding.com/sketch -->
    <title>linkedin@2x</title>
    <desc>Created with Sketch.</desc>
    <defs></defs>
    <g id="Page-1" stroke="none" stroke-width="1" fill="none" fill-rule="evenodd">
        <g id="linkedin" fill-rule="nonzero">
            <g id="iconfinder_social-linkedin-circle_771370" transform="translate(1.000000, 1.000000)">
                <circle id="Oval" fill="#0076B4" cx="24" cy="24" r="24"></circle>
                <path d="M16.544625,35.97525 L10.944,35.97525 L10.944,17.97375 L16.544625,17.97375 L16.544625,35.97525 Z M13.746,15.514125 C11.949,15.514125 10.5,14.060625 10.5,12.26925 C10.5,10.478625 11.949,9.02475 13.746,9.02475 C15.535125,9.02475 16.98825,10.47825 16.98825,12.26925 C16.988625,14.060625 15.5355,15.514125 13.746,15.514125 Z M37.5,35.97525 L31.905375,35.97525 L31.905375,27.22125 C31.905375,25.134 31.869,22.44825 28.998375,22.44825 C26.0865,22.44825 25.642875,24.722625 25.642875,27.072 L25.642875,35.97525 L20.054625,35.97525 L20.054625,17.97375 L25.4175,17.97375 L25.4175,20.4345 L25.494,20.4345 C26.24025,19.01925 28.065375,17.527125 30.787875,17.527125 C36.45225,17.527125 37.49925,21.25425 37.49925,26.102625 L37.5,35.97525 L37.5,35.97525 Z" id="Shape" fill="#FFFFFF"></path>
            </g>
        </g>
    </g>
</svg>