<?xml version="1.0" encoding="UTF-8"?>
<svg width="50px" height="50px" viewBox="0 0 50 50" version="1.1" xmlns="http://www.w3.org/2000/svg" xmlns:xlink="http://www.w3.org/1999/xlink">
    <!-- Generator: Sketch 47.1 (45422) - http://www.bohemiancoding.com/sketch -->
    <title>share@2x</title>
    <desc>Created with Sketch.</desc>
    <defs>
        <linearGradient x1="33.9194565%" y1="-27.6098837%" x2="58.4866859%" y2="71.0897085%" id="linearGradient-1">
            <stop stop-color="#4E9CFF" offset="0%"></stop>
            <stop stop-color="#176AD4" offset="100%"></stop>
        </linearGradient>
    </defs>
    <g id="Page-1" stroke="none" stroke-width="1" fill="none" fill-rule="evenodd">
        <g id="share">
            <g id="iconfinder_2018_social_media_popular_app_logo-whatsapp_3225179" transform="translate(1.000000, 1.000000)">
                <path d="M24,48 L24,48 C10.7472,48 0,37.2528 0,24 L0,24 C0,10.7472 10.7472,0 24,0 L24,0 C37.2528,0 48,10.7472 48,24 L48,24 C48,37.2528 37.2528,48 24,48 Z" id="Shape" fill="url(#linearGradient-1)" fill-rule="nonzero"></path>
                <path d="M34.5852687,38.387914 C33.4542029,40.5240295 31.0589033,41.4705334 28.8194982,40.7862145 C26.580093,40.1018956 25.1200352,37.9197972 25.3204316,35.556759 L12.6057319,28.3436252 L12.3923383,28.4878879 C10.3140401,29.6895818 7.68540898,29.209694 6.15088956,27.3484372 C4.61637015,25.4871805 4.61637015,22.7787363 6.15088956,20.9174796 C7.68540898,19.0562228 10.3140401,18.576335 12.3923383,19.7780289 L25.1426036,12.5648951 C24.8874799,10.2262964 26.2705222,8.02244948 28.4677151,7.26640433 C30.664908,6.51035917 33.0849589,7.4055772 34.2860036,9.41868831 C35.4870484,11.4317994 35.1458705,14.0210498 33.4657435,15.6437663 C31.7856166,17.2664828 29.218684,17.4859719 27.294322,16.171462 L14.8463643,23.2403331 C14.9154548,23.7186567 14.9154548,24.2046362 14.8463643,24.6829599 L27.294322,31.7698638 C29.1791412,30.4876812 31.6827854,30.6716717 33.3656046,32.2160368 C35.0484238,33.7604019 35.7163345,36.2517985 34.5852687,38.387914 Z" id="Path" fill="#FFFFFF"></path>
            </g>
        </g>
    </g>
</svg>