<?xml version="1.0" encoding="UTF-8"?>
<svg width="50px" height="50px" viewBox="0 0 50 50" version="1.1" xmlns="http://www.w3.org/2000/svg" xmlns:xlink="http://www.w3.org/1999/xlink">
    <!-- Generator: Sketch 47.1 (45422) - http://www.bohemiancoding.com/sketch -->
    <title>whatsapp@2x</title>
    <desc>Created with Sketch.</desc>
    <defs></defs>
    <g id="Page-1" stroke="none" stroke-width="1" fill="none" fill-rule="evenodd">
        <g id="whatsapp">
            <g id="iconfinder_2018_social_media_popular_app_logo-whatsapp_3225179" transform="translate(1.000000, 1.000000)">
                <path d="M24,48 L24,48 C10.7472,48 0,37.2528 0,24 L0,24 C0,10.7472 10.7472,0 24,0 L24,0 C37.2528,0 48,10.7472 48,24 L48,24 C48,37.2528 37.2528,48 24,48 Z" id="Shape" fill="#25D366" fill-rule="nonzero"></path>
                <g id="WA_Logo" transform="translate(8.000000, 8.000000)" fill="#FFFFFF">
                    <path d="M27.0672,4.6656 C24.0912,1.6848 20.1264,0.0431999991 15.9072,0.0383999991 C7.2144,0.0383999991 0.1344,7.1136 0.1344,15.8112 C0.1344,18.5904 0.8592,21.3072 2.2416,23.6976 L0.00479999989,31.872 L8.3664,29.6784 C10.6704,30.936 13.2624,31.5984 15.9024,31.5984 L15.9072,31.5984 C15.9072,31.5984 15.9072,31.5984 15.9072,31.5984 C24.6,31.5984 31.6752,24.5232 31.68,15.8256 C31.6848,11.6112 30.048,7.6464 27.0672,4.6656 Z M15.912,28.9344 L15.9072,28.9344 C13.5552,28.9344 11.2464,28.3008 9.2352,27.1056 L8.7552,26.8224 L3.792,28.1232 L5.1168,23.2848 L4.8048,22.7904 C3.4944,20.7024 2.7984,18.2928 2.7984,15.8112 C2.8032,8.5824 8.6832,2.7024 15.9168,2.7024 C19.4208,2.7024 22.7088,4.0704 25.1856,6.5472 C27.6624,9.024 29.0256,12.3216 29.0208,15.8208 C29.0208,23.0544 23.136,28.9344 15.912,28.9344 Z M23.1024,19.1136 C22.7088,18.9168 20.7696,17.9616 20.4096,17.832 C20.0496,17.7024 19.7856,17.6352 19.5216,18.0288 C19.2576,18.4224 18.504,19.3104 18.2736,19.5744 C18.0432,19.8384 17.8128,19.872 17.4192,19.6752 C17.0256,19.4784 15.7536,19.0608 14.2512,17.7168 C13.08,16.6704 12.288,15.3792 12.0576,14.9856 C11.8272,14.592 12.0336,14.376 12.2304,14.1792 C12.408,14.0016 12.624,13.7184 12.8208,13.488 C13.0176,13.2576 13.0848,13.0944 13.2144,12.8304 C13.344,12.5664 13.2816,12.336 13.1808,12.1392 C13.08,11.9424 12.2928,10.0032 11.9664,9.2112 C11.6448,8.4432 11.3232,8.5488 11.0784,8.5344 C10.848,8.5248 10.584,8.52 10.3248,8.52 C10.0608,8.52 9.6336,8.6208 9.2736,9.0144 C8.9136,9.408 7.896,10.3632 7.896,12.3024 C7.896,14.2416 9.3072,16.1184 9.504,16.3776 C9.7008,16.6416 12.2832,20.6208 16.2384,22.3296 C17.1792,22.7376 17.9136,22.9776 18.4848,23.16 C19.4304,23.4624 20.2896,23.4192 20.9664,23.3184 C21.7248,23.2032 23.2992,22.3632 23.6256,21.4464 C23.952,20.5248 23.952,19.7376 23.856,19.5744 C23.76,19.4112 23.496,19.3152 23.1024,19.1136 Z" id="Shape"></path>
                </g>
            </g>
        </g>
    </g>
</svg>